<?xml version="1.0" encoding="utf-8"?>
<!-- Generator: Adobe Illustrator 15.1.0, SVG Export Plug-In . SVG Version: 6.00 Build 0)  -->
<!DOCTYPE svg PUBLIC "-//W3C//DTD SVG 1.1//EN" "http://www.w3.org/Graphics/SVG/1.1/DTD/svg11.dtd">
<svg version="1.1" id="Layer_1" xmlns="http://www.w3.org/2000/svg" xmlns:xlink="http://www.w3.org/1999/xlink" x="0px" y="0px"
	 width="1458.42px" height="174.644px" viewBox="0 0 1458.42 174.644" enable-background="new 0 0 1458.42 174.644"
	 xml:space="preserve">
<g>
	<path fill="#111111" d="M71.583,24.25v145.498H49.432V24.25H0V4.896h120.782V24.25H71.583z"/>
	<path fill="#111111" d="M230.832,119.383h-62.723l-18.42,50.365h-23.317L189.095,5.13h22.851l59.925,164.618h-23.084
		L230.832,119.383z M224.303,100.962l-24.016-68.552l-25.183,68.552H224.303z"/>
	<path fill="#111111" d="M348.577,24.25v145.498h-22.151V24.25h-49.432V4.896h120.782V24.25H348.577z"/>
	<path fill="#111111" d="M438.808,5.13v164.618h-22.151V5.13H438.808z"/>
	<path fill="#111111" d="M561.218,119.383h-62.723l-18.42,50.365h-23.317L519.48,5.13h22.851l59.925,164.618h-23.084
		L561.218,119.383z M554.689,100.962l-24.016-68.552l-25.183,68.552H554.689z"/>
	<path fill="#111111" d="M751.945,5.13v164.618h-19.819L641.889,35.908l1.865,133.839h-20.519V5.13h20.519l89.304,131.974
		L732.125,5.13H751.945z"/>
	<path fill="#111111" d="M876.917,119.383h-62.723l-18.42,50.365h-23.317L835.179,5.13h22.851l59.925,164.618h-23.084
		L876.917,119.383z M870.388,100.962l-24.016-68.552l-25.183,68.552H870.388z"/>
	<path fill="#111111" d="M1118.475,5.13v164.618h-39.406l2.565-117.284l0.466-16.555l-1.399,5.829
		c-2.098,9.327-2.332,10.493-4.197,17.488l-31.012,110.522h-35.442L980.205,63.889l-7.228-29.379
		c0.7,13.058,0.7,15.855,1.399,31.478l2.099,103.76h-39.872V5.13h60.158l25.183,92.335l5.829,26.348
		c2.332-11.425,2.565-12.591,4.43-20.286L1058.55,5.13H1118.475z"/>
	<path fill="#111111" d="M1238.315,5.13l60.625,164.618h-43.836l-8.161-26.348h-60.624l-8.161,26.348h-43.836L1195.413,5.13
		H1238.315z M1216.165,44.302c-2.099,8.394-4.43,17.021-6.762,25.416c-3.498,12.358-9.793,31.711-13.524,44.069h41.737
		L1216.165,44.302z"/>
	<path fill="#111111" d="M1458.42,132.207c-6.062,9.56-11.892,18.887-24.949,27.98c-6.994,4.896-23.083,14.457-45.934,14.457
		c-43.603,0-78.812-31.711-78.812-87.438c0-48.732,33.11-87.206,79.744-87.206c18.887,0,35.675,6.529,48.032,16.322
		c11.426,9.094,16.789,18.188,21.452,26.348l-32.644,16.322c-2.332-5.363-5.13-10.959-12.358-17.021
		c-7.928-6.295-15.855-8.161-22.617-8.161c-26.581,0-40.572,24.716-40.572,52.23c0,36.142,18.42,54.096,40.572,54.096
		c21.451,0,30.079-14.923,35.675-24.483L1458.42,132.207z"/>
</g>
</svg>
